# xmcd CD database file
#
# Track frame offsets:
#	150
#	23701
#	46681
#	57459
#	88003
#	110380
#	132852
#	147386
#	178349
#	207314
#	231679
#	245095
#
# Disc length: 4000 seconds
#
# Revision: 0
# Processed by: cddbd v1.5.2PL0 Copyright (c) Steve Scherf et al.
# Submitted via: CDex 1.50
#
DISCID=b30f9e0c
DTITLE=Sonny Rollins - Collection
DYEAR=2007
DGENRE=Jazz
TTITLE0=I feel a song comin' on
TTITLE1=Let's call this
TTITLE2=Mambo bounce
TTITLE3=Thomas
TTITLE4=Paradox
TTITLE5=Airegin
TTITLE6=Newk's fadeaway
TTITLE7=Vierd blues
TTITLE8=Solid
TTITLE9=It's only a paper moon
TTITLE10=The stopper
TTITLE11=Tenor madness
EXTD=YEAR: 2007
EXTT0=
EXTT1=
EXTT2=
EXTT3=
EXTT4=
EXTT5=
EXTT6=
EXTT7=
EXTT8=
EXTT9=
EXTT10=
EXTT11=
PLAYORDER=
